<svg width="145" height="144" viewBox="0 0 145 144" fill="none" xmlns="http://www.w3.org/2000/svg">
<rect x="0.945557" width="144" height="144" rx="72" fill="#121619" fill-opacity="0.5"/>
<path d="M100.226 74.092C100.506 73.6512 100.696 73.1585 100.783 72.6432C100.869 72.1278 100.852 71.6003 100.731 71.0918C100.61 70.5834 100.388 70.1044 100.079 69.6832C99.7695 69.2621 99.3786 68.9073 98.9296 68.64L59.2416 44.512C58.5962 44.1213 57.856 43.9152 57.1016 43.916C54.8616 43.916 53.0496 45.688 53.0496 47.876V96.12C53.0496 96.86 53.2616 97.584 53.6616 98.212C54.8456 100.068 57.3416 100.636 59.2416 99.48L98.9296 75.356C99.4536 75.036 99.9016 74.6 100.23 74.088L100.226 74.092ZM103.21 82.08L63.5256 106.204C57.8256 109.672 50.3256 107.964 46.7816 102.4C45.5834 100.525 44.9463 98.3456 44.9456 96.12V47.88C44.9456 41.316 50.3856 36 57.1056 36C59.3736 36 61.5976 36.62 63.5256 37.792L103.21 61.92C108.91 65.384 110.658 72.704 107.11 78.272C106.126 79.816 104.79 81.12 103.21 82.08Z" fill="white"/>
</svg>
